# xmcd
#
# Track frame offsets:
# 150
# 19405
# 32777
# 48540
# 67037
# 84130
# 102810
# 116330
# 128712
# 146075
# 161372
# 187362
# 198485
# 214900
#
# Disc length: 3069 seconds
#
#
# Revision: 1
# Processed by: cddbd v1.5.1PL0 Copyright (c) Steve Scherf et al.
# Submitted via: FreeRIP 2.942 
#
DISCID=cb0bfb0e
DTITLE=Trio Nordestino - Balanço Bom
DYEAR=1900
DGENRE=Blues
TTITLE0=Me Dá Meu Coração
TTITLE1=Ainda Queima
TTITLE2=Amor Escondido
TTITLE3=Fumacê
TTITLE4=Forró e Paixão
TTITLE5=Onkotô
TTITLE6=sem Querer
TTITLE7=Gotas de Luar
TTITLE8=Lá Vou Eu
TTITLE9=Como Alcançar uma Estrela
TTITLE10=Cochilou o Cachimbo Cai - Balanço Bom
TTITLE11=Ana Bela
TTITLE12=Sem Você Eu Nada Sou
TTITLE13=De Lua A Jackson ( Forró Da Terra )
EXTD=
EXTT0=
EXTT1=
EXTT2=
EXTT3=
EXTT4=
EXTT5=
EXTT6=
EXTT7=
EXTT8=
EXTT9=
EXTT10=
EXTT11=
EXTT12=
EXTT13=
PLAYORDER=
